<svg width="400" height="400" viewBox="0 0 400 400" fill="none" xmlns="http://www.w3.org/2000/svg">
<g clip-path="url(#clip0)">
<path fill-rule="evenodd" clip-rule="evenodd" d="M0 280.716C0 280.716 106.682 260.971 146.452 302.284C180.854 338.018 224.533 344.624 257.719 345.904C294.021 347.3 368.562 345.421 400 311.347C400 311.347 348.546 376.117 202.761 376C75.1716 375.901 2.5943 317.438 0 280.716Z" fill="#F87F16"/>
<path d="M179.053 166.99L193.587 126.221H206.409L205.979 146.605L197.995 154.626L185.877 163.435L179.053 166.99Z" fill="#F6881D"/>
<path d="M88.3232 146.349C88.3232 146.349 85.2046 138.708 99.7831 131.204C114.362 123.701 125.748 119.206 125.748 119.206L146.026 119.11C146.026 119.11 177.607 131.399 181.68 144.273L183.61 153.716L88.3232 146.349Z" fill="#F6881D"/>
<path d="M145.423 46.5192C145.423 46.5192 133.012 36.8715 118.433 48.8773C103.855 60.8831 112.216 96.6357 112.216 96.6357C112.216 96.6357 116.668 109.786 110.715 109.654C110.2 109.643 108.214 109.982 107.294 109.885C107.294 109.885 115.124 117.332 124.715 113.728C125.611 113.392 144.577 112.864 144.577 112.864C144.577 112.864 157.862 114.553 162.418 111.694C162.418 111.694 158.398 109.104 159.916 104.904C161.435 100.706 165.545 89.9854 165.813 84.982C166.08 79.9793 167.421 58.1811 157.951 48.8898C157.951 48.8898 154.157 44.1486 145.423 46.5192Z" fill="#DF0000"/>
<path d="M127.163 97.1313L124.319 116.374C124.319 116.374 123.093 118.522 125.741 119.201C125.741 119.201 127.001 119.612 130.809 122.833C134.616 126.055 142.523 131.132 144.622 130.204C146.722 129.277 147.648 125.616 146.673 121.564C145.696 117.512 143.792 112.729 144.622 108.433L145.266 98.9048C145.266 98.9048 141.352 97.3472 140.961 97.3984C140.571 97.4496 127.163 97.1313 127.163 97.1313Z" fill="#EFD7CD"/>
<path d="M139.404 100.075C139.404 100.075 144.422 101.893 144.828 105.508L145.425 97.4089L139.922 98.7417L139.404 100.075Z" fill="#DDBDAF"/>
<path d="M157.007 73.6554C157.007 73.6554 160.623 98.6579 139.402 100.067C139.402 100.067 125.098 102.763 120.068 86.4805C120.068 86.4805 114.886 85.0357 115.267 80.2281C115.267 80.2281 115.743 77.5621 118.409 78.4664C118.409 78.4664 118.074 72.8022 119.741 71.6598C119.741 71.6598 135.437 75.0289 142.872 63.0493C142.872 63.0493 144.428 70.0787 157.007 73.6554Z" fill="#EFD7CD"/>
<path d="M119.888 116.364L97.3995 129.5C97.3995 129.5 87.2909 134.399 86.5845 141.314" stroke="#070202" stroke-miterlimit="10" stroke-linecap="round" stroke-linejoin="round"/>
<path d="M149.64 78.2896C149.64 79.0486 149.183 79.6631 148.619 79.6631C148.055 79.6631 147.598 79.0486 147.598 78.2896C147.598 77.5312 148.055 76.9168 148.619 76.9168C149.183 76.9168 149.64 77.5312 149.64 78.2896Z" fill="#080102"/>
<path d="M138.123 77.6374C138.123 78.3958 137.665 79.0103 137.101 79.0103C136.537 79.0103 136.081 78.3958 136.081 77.6374C136.081 76.8791 136.537 76.2639 137.101 76.2639C137.665 76.2639 138.123 76.8791 138.123 77.6374Z" fill="#080102"/>
<path d="M142.963 79.4497C142.963 79.4497 143.012 82.3904 144.018 83.3958C145.024 84.4012 143.67 84.9174 143.67 84.9174C143.67 84.9174 143.032 85.0676 142.694 84.9174" stroke="#070202" stroke-miterlimit="10" stroke-linecap="round"/>
<path d="M88.324 146.35L94.8081 153.216L101.009 158.44C101.009 158.44 107.577 162.892 107.832 163.043C108.087 163.195 116.38 167.456 116.38 167.456L125.283 170.716L134.417 172.823L143.449 173.866H153.843L157.319 173.184L162.036 172.4C162.036 172.4 166.904 171.268 167.172 171.195C167.44 171.122 175.669 168.337 175.669 168.337L181.814 165.534L184.32 164.193L185.707 163.398L183.61 153.716L104.755 139.905L88.324 146.35Z" fill="#F6881D"/>
<path d="M223.529 97.404C223.529 139.632 189.296 173.865 147.068 173.865C104.839 173.865 70.6056 139.632 70.6056 97.404C70.6056 55.175 104.839 20.9433 147.068 20.9433C172.295 20.9433 194.67 33.1609 208.596 52.0017" stroke="#070202" stroke-miterlimit="10" stroke-linecap="round"/>
<path d="M226.299 93.0681H185.27C180.768 93.0681 177.118 89.4181 177.118 84.9149V67.5403C177.118 63.0372 180.768 59.3872 185.27 59.3872H226.299C230.801 59.3872 234.451 63.0372 234.451 67.5403V84.9149C234.451 89.4181 230.801 93.0681 226.299 93.0681Z" fill="#EAC25C"/>
<path d="M183.483 93.0726C178.98 93.0726 175.33 89.4227 175.33 84.9195V67.5449C175.33 65.3307 176.213 63.3227 177.645 61.853" stroke="#070202" stroke-miterlimit="10" stroke-linecap="round"/>
<path d="M185.268 93.0728L177.728 102.489C177.556 102.705 177.776 103.012 178.036 102.916L204.802 93.0728" fill="#EAC25C"/>
<path d="M193.695 76.2299C193.695 77.2159 192.895 78.0151 191.909 78.0151C190.923 78.0151 190.125 77.2159 190.125 76.2299C190.125 75.2439 190.923 74.444 191.909 74.444C192.895 74.444 193.695 75.2439 193.695 76.2299Z" fill="#231815"/>
<path d="M207.574 76.2299C207.574 77.2159 206.775 78.0151 205.789 78.0151C204.803 78.0151 204.004 77.2159 204.004 76.2299C204.004 75.2439 204.803 74.444 205.789 74.444C206.775 74.444 207.574 75.2439 207.574 76.2299Z" fill="#231815"/>
<path d="M221.442 76.2299C221.442 77.2159 220.642 78.0151 219.656 78.0151C218.67 78.0151 217.871 77.2159 217.871 76.2299C217.871 75.2439 218.67 74.444 219.656 74.444C220.642 74.444 221.442 75.2439 221.442 76.2299Z" fill="#231815"/>
<path d="M183.486 93.0728L175.946 102.489C175.774 102.705 175.994 103.012 176.253 102.916L203.02 93.0728" stroke="#070202" stroke-miterlimit="10" stroke-linecap="round"/>
<path d="M183.484 59.3872H224.512C229.015 59.3872 232.665 63.0372 232.665 67.5403V84.9149C232.665 89.4174 229.015 93.0681 224.512 93.0681H203.017" stroke="#070202" stroke-miterlimit="10" stroke-linecap="round"/>
<path d="M139.398 59.3872C139.398 59.3872 134.716 68.2814 119.887 71.0313" stroke="#070202" stroke-miterlimit="10" stroke-linecap="round"/>
<path d="M118.38 77.6008C118.38 77.6008 114.291 77.45 115.244 81.5234C116.196 85.5976 120.065 86.4812 120.065 86.4812" stroke="#070202" stroke-miterlimit="10" stroke-linecap="round"/>
<path d="M137.042 89.6001C137.089 87.181 141.528 89.9011 144.475 88.7414C149.485 86.77 147.514 90.7099 146.76 91.5735C145.734 92.7463 144.102 94.1177 142.199 93.9012C139.373 93.5794 137.968 91.7755 137.584 91.0227C137.584 91.0227 137.035 89.991 137.042 89.6001Z" stroke="#070202" stroke-miterlimit="10" stroke-linecap="round" stroke-linejoin="round"/>
<path d="M191.937 114.724C193.735 110.829 194.602 99.6614 194.602 99.6614C194.602 99.6614 194.376 97.5641 196.324 98.0886C197.581 98.427 198.009 102.607 198.154 105.528C198.27 107.868 199.676 109.99 201.842 110.882C201.861 110.889 201.88 110.897 201.898 110.904C203.771 111.653 206.917 111.579 207.291 114.35C207.666 117.121 205.194 126.259 205.194 126.259C205.194 126.259 196.655 129.031 194.633 126.259C192.611 123.488 190.139 118.619 191.937 114.724Z" fill="#EFD7CD"/>
<path d="M310.086 270.102C310.158 269.141 311.704 264.049 313.655 261.307C314.023 260.788 314.148 260.142 313.978 259.529C313.373 257.343 311.367 252.604 305.382 252.894L299.915 262.827L310.086 270.102Z" fill="#EFD7CD"/>
<path d="M237.628 118.235C237.628 118.235 226.937 108.821 233.068 90.8152C239.319 72.4563 259.772 69.3261 259.772 69.3261C259.772 69.3261 272.112 66.8138 279.132 75.1308C279.132 75.1308 280.825 74.3059 284.865 75.864C296.527 80.3609 299.592 90.3081 301.52 101.882C301.52 101.882 305.702 136.189 296.326 143.849L265.476 145.81H234.109C234.109 145.81 241.068 134.735 237.628 118.235Z" fill="#804F1B"/>
<path d="M278.441 157.431C277.76 156.145 277.572 153.845 277.53 152.29V135.365C277.53 134.714 277.002 134.186 276.35 134.186H255.851C255.199 134.186 254.671 134.714 254.671 135.365V150.579C254.671 150.579 254.969 156.33 252.806 161.846H252.809C252.809 161.846 246.071 180.739 267.327 169.167C279.514 162.531 279.437 158.928 278.441 157.431Z" fill="#EFD7CD"/>
<path d="M254.675 139.142V147.902C254.675 147.902 258.011 142.859 263.553 142.388C269.095 141.917 254.675 139.142 254.675 139.142Z" fill="#DDBDAF"/>
<path d="M287.197 114.62C287.197 114.62 286.861 114.785 286.468 114.925C287.401 108.878 287.44 104.362 287.44 104.362L251.8 93.2983L236.922 106.432C236.922 106.432 235.748 142.354 261.45 142.354C273.592 142.354 280.967 135.535 284.135 125.272C286.417 124.7 289.14 122.818 289.459 120.275C290.089 115.248 287.197 114.62 287.197 114.62Z" fill="#EFD7CD"/>
<path d="M292.022 109.247L287.719 94.0326L252.752 81.2744L237.959 90.4194C237.959 90.4194 230.751 101.319 236.641 107.166H248.616C248.616 107.166 245.209 97.1078 251.804 94.0326C251.804 94.0326 260.283 110.593 286.374 110.593L286.431 114.918C286.431 114.918 287.316 114.503 288.152 115.142L289.371 114.067L287.786 113.141L292.022 109.247Z" fill="#804F1B"/>
<path d="M264.551 113.574C264.551 114.595 263.935 115.424 263.175 115.424C262.416 115.424 261.8 114.595 261.8 113.574C261.8 112.552 262.416 111.723 263.175 111.723C263.935 111.723 264.551 112.552 264.551 113.574Z" fill="#080102"/>
<path d="M249.121 113.574C249.121 114.595 248.505 115.424 247.746 115.424C246.986 115.424 246.37 114.595 246.37 113.574C246.37 112.552 246.986 111.723 247.746 111.723C248.505 111.723 249.121 112.552 249.121 113.574Z" fill="#080102"/>
<path d="M255.87 117.822C254.334 117.822 252.265 120.548 255.87 121.654" stroke="#070202" stroke-miterlimit="10" stroke-linecap="round"/>
<path d="M253.927 129.676C253.927 128.264 254.797 127.119 255.87 127.119C256.943 127.119 257.812 128.264 257.812 129.676C257.812 131.088 256.943 132.233 255.87 132.233C254.797 132.233 253.927 131.088 253.927 129.676Z" stroke="#070202" stroke-miterlimit="10" stroke-linecap="round"/>
<path d="M243.02 161.994C243.02 161.994 243.356 193.431 251.795 196.797C251.795 196.797 282.675 184.565 292.026 165.809C292.026 165.809 313.281 172.908 317.627 182.678C317.627 182.678 303.922 221.853 307.511 228.4H217.97C217.97 228.4 214.79 186.96 221.616 180.658C221.616 180.658 227.675 167.211 243.02 161.994Z" fill="#EAC25C"/>
<path d="M175.743 182.181L157.581 152.124L176.599 155.411L195.616 184.563L185.151 187.408L179.663 185.84L175.743 182.181Z" stroke="#070202" stroke-miterlimit="10" stroke-linecap="round" stroke-linejoin="round"/>
<path d="M315.771 228.695L83.6204 228.406" stroke="#070202" stroke-miterlimit="10" stroke-linecap="round"/>
<path d="M394.568 228.617L343.473 228.554" stroke="#070202" stroke-miterlimit="10" stroke-linecap="round"/>
<path d="M257.812 246.069C240.078 237.817 211.34 246.069 211.34 246.069L201.74 301.076C201.74 301.076 237.124 304.112 257.812 297.173" stroke="#070202" stroke-miterlimit="10" stroke-linecap="round" stroke-linejoin="round"/>
<path d="M311.434 287.024L313.886 301.072C313.886 301.072 278.499 304.108 257.812 297.169" stroke="#070202" stroke-miterlimit="10" stroke-linecap="round" stroke-linejoin="round"/>
<path d="M247.974 161.926C247.733 162.128 247.086 162.804 246.406 163.897C244.825 166.44 244.617 169.239 245.006 172.205C245.232 173.927 245.841 175.575 246.798 177.024C247.759 178.479 249.048 180.443 249.818 181.674C250.005 181.973 250.502 181.708 250.495 181.355C250.463 179.917 251.481 175.565 253.886 174.066" stroke="#070202" stroke-miterlimit="10" stroke-linecap="round"/>
<path d="M258.057 174.349C258.057 174.349 261.902 179.229 261.176 183.27C261.123 183.565 261.4 183.811 261.688 183.728C265.208 182.714 281.85 177.317 285.26 164.954" stroke="#070202" stroke-miterlimit="10" stroke-linecap="round"/>
<path d="M252.087 185.102C252.087 185.102 253.618 187.625 258.483 186.707C259.064 186.597 259.442 187.048 259.618 187.612C259.963 188.716 260.451 190.798 259.988 191.967" stroke="#070202" stroke-miterlimit="10" stroke-linecap="round"/>
<path d="M250.869 187.176C250.869 187.176 248.2 189.953 248.766 192.815" stroke="#070202" stroke-miterlimit="10" stroke-linecap="round"/>
<path d="M195.888 193.929C197.229 192.192 196.155 183.676 196.13 181.651C196.158 181.033 196.238 180.088 196.13 179.975C195.904 179.74 194.745 178.041 194.261 177.387C194.037 177.085 193.644 176.97 193.292 177.1L192.991 177.213C192.978 177.218 192.964 177.222 192.95 177.226L178.995 180.802C177.753 181.061 177.002 180.832 176.688 180.692C175.86 180.267 173.874 179.142 172.313 177.393C171.713 176.72 172.409 176.254 171.741 175.228C169 171.025 167.237 172.657 167.237 172.657C167.237 172.657 166.291 173.719 167.906 175.658C169.122 177.118 170.149 181.792 172.788 186.219C174.224 189.957 178.519 203.171 178.519 203.171C178.519 203.171 187.056 207.448 195.047 202.08C196.528 201.085 194.631 202.441 194.042 198.21C193.893 197.137 194.18 196.04 194.85 195.189C195.052 194.93 195.242 194.697 195.403 194.502C195.569 194.322 195.731 194.132 195.888 193.929Z" fill="#EFD7CD"/>
<path d="M300.256 244.905C300.03 245.58 279.686 283.017 279.686 283.017L279.266 292.034L286.652 287.027L307.673 248.727C307.673 248.727 300.481 244.231 300.256 244.905Z" stroke="#070202" stroke-miterlimit="10" stroke-linecap="round" stroke-linejoin="round"/>
<path d="M168.933 170.911L172.64 177.045" stroke="#070202" stroke-miterlimit="10" stroke-linecap="round"/>
<path d="M187.434 228.403L177.757 203.9C177.57 203.423 178.055 202.955 178.521 203.167C181.415 204.488 188.659 206.757 196.4 201.178" stroke="#070202" stroke-miterlimit="10" stroke-linecap="round"/>
<path d="M316.345 261.495L338.59 237.918C344.465 230.742 346.976 221.019 340.752 211.485L320.715 186.005" stroke="#070202" stroke-miterlimit="10" stroke-linecap="round"/>
<path d="M306.116 244.837L315.805 228.409C315.805 228.409 318.533 223.434 323.829 222.15" stroke="#070202" stroke-miterlimit="10" stroke-linecap="round"/>
<path d="M255.867 87.3485C255.867 87.3485 262.048 106.766 286.377 110.588" stroke="#070202" stroke-miterlimit="10" stroke-linecap="round"/>
<path d="M286.84 114.134C286.84 114.134 289.675 113.912 290.588 116.666C290.825 117.38 290.868 118.15 290.739 118.891C290.456 120.526 289.276 123.537 284.521 124.96" stroke="#070202" stroke-width="0.00238532" stroke-miterlimit="10" stroke-linecap="round"/>
<path d="M286.572 269.26L288.721 265.32L286.662 266.333C286.125 266.597 285.661 266.982 285.305 267.464C284.445 268.627 283.041 270.352 282.754 270.939C282.754 270.94 282.753 270.94 282.753 270.941C282.751 270.943 282.748 270.948 282.747 270.951H282.748C282.546 271.3 282.365 271.71 282.217 272.19C280.809 276.752 284.685 280.021 284.685 280.021C285.432 280.744 287.621 282.198 288.403 281.274C289.187 280.348 287.592 278.376 286.411 276.648C284.489 273.834 286.1 270.194 286.572 269.26Z" fill="#EFD7CD"/>
<path d="M309.815 268.093L305.75 261.725C305.07 260.66 303.684 260.289 302.572 260.888C301.46 261.485 300.242 262.241 299.92 262.827C299.29 263.971 295.642 271.187 295.642 271.187L295.264 272.333C294.845 273.02 294.155 273.915 293.082 274.719C290.962 276.308 289.814 279.134 289.814 279.134C287.438 282.757 292.552 280.547 292.552 280.547C292.186 282.071 293.341 283.536 294.908 283.536H298.917C299.408 283.536 299.888 283.386 300.292 283.107L306.986 278.49C307.437 278.178 307.769 277.724 307.929 277.201L310.091 270.103C310.297 269.425 310.197 268.691 309.815 268.093Z" fill="#EFD7CD"/>
<path d="M294.824 272.07L301.888 259.239" stroke="#070202" stroke-width="0.00238532" stroke-miterlimit="10" stroke-linecap="round"/>
<path d="M100.931 292.883H22.5098V279.749H100.931" fill="white"/>
<path d="M100.931 292.883H22.5098V279.749H100.931" stroke="black" stroke-miterlimit="10" stroke-linecap="round" stroke-linejoin="round"/>
<path d="M100.934 279.749L148.527 242.374C148.892 242.086 149.41 242.108 149.755 242.422C151.297 243.823 154.717 248.032 149.119 254.279L100.934 292.883" fill="#E8E8E8"/>
<path d="M100.934 279.749L148.527 242.374C148.892 242.086 149.41 242.108 149.755 242.422C151.297 243.823 154.717 248.032 149.119 254.279L100.934 292.883" stroke="black" stroke-miterlimit="10" stroke-linecap="round" stroke-linejoin="round"/>
<path d="M100.72 279.572C100.72 279.572 105.589 285.314 100.932 292.881L100.72 279.572Z" fill="white"/>
<path d="M100.72 279.572C100.72 279.572 105.589 285.314 100.932 292.881" stroke="black" stroke-miterlimit="10"/>
<path d="M22.5098 279.741L80.4362 242.164H149.136" fill="white"/>
<path d="M22.5098 279.741L80.4362 242.164H149.136" stroke="black" stroke-miterlimit="10" stroke-linecap="round" stroke-linejoin="round"/>
<path d="M100.931 279.749H22.5098V266.614H100.931" fill="white"/>
<path d="M100.931 279.749H22.5098V266.614H100.931" stroke="black" stroke-miterlimit="10" stroke-linecap="round" stroke-linejoin="round"/>
<path d="M100.934 266.613L148.526 229.239C148.892 228.952 149.41 228.972 149.755 229.287C151.297 230.688 154.717 234.897 149.119 241.144L100.934 279.749" fill="#F77F15"/>
<path d="M100.934 266.613L148.526 229.239C148.892 228.952 149.41 228.972 149.755 229.287C151.297 230.688 154.717 234.897 149.119 241.144L100.934 279.749" stroke="black" stroke-miterlimit="10" stroke-linecap="round" stroke-linejoin="round"/>
<path d="M100.72 266.437C100.72 266.437 105.589 272.179 100.932 279.746L100.72 266.437Z" fill="white"/>
<path d="M100.72 266.437C100.72 266.437 105.589 272.179 100.932 279.746" stroke="black" stroke-miterlimit="10"/>
<path d="M22.5098 266.611L80.4362 229.035H149.136" fill="white"/>
<path d="M22.5098 266.611L80.4362 229.035H149.136" stroke="black" stroke-miterlimit="10" stroke-linecap="round" stroke-linejoin="round"/>
<path d="M100.931 266.614H22.5098V253.479H100.931" fill="white"/>
<path d="M100.931 266.614H22.5098V253.479H100.931" stroke="black" stroke-miterlimit="10" stroke-linecap="round" stroke-linejoin="round"/>
<path d="M100.934 253.479L148.527 216.105C148.892 215.817 149.41 215.839 149.755 216.152C151.297 217.554 154.717 221.763 149.119 228.01L100.934 266.614" fill="#F5C643"/>
<path d="M100.934 253.479L148.527 216.105C148.892 215.817 149.41 215.839 149.755 216.152C151.297 217.554 154.717 221.763 149.119 228.01L100.934 266.614" stroke="black" stroke-miterlimit="10" stroke-linecap="round" stroke-linejoin="round"/>
<path d="M100.72 253.302C100.72 253.302 105.589 259.045 100.932 266.612L100.72 253.302Z" fill="white"/>
<path d="M100.72 253.302C100.72 253.302 105.589 259.045 100.932 266.612" stroke="black" stroke-miterlimit="10"/>
<path d="M22.5098 253.477L80.4362 215.9H149.136" fill="white"/>
<path d="M22.5098 253.477L80.4362 215.9H149.136" stroke="black" stroke-miterlimit="10" stroke-linecap="round" stroke-linejoin="round"/>
<path d="M100.931 253.308H22.5098V240.173H100.931" fill="white"/>
<path d="M100.931 253.308H22.5098V240.173H100.931" stroke="black" stroke-miterlimit="10" stroke-linecap="round" stroke-linejoin="round"/>
<path d="M100.934 240.168L148.527 202.793C148.892 202.505 149.41 202.527 149.755 202.841C151.297 204.242 154.717 208.452 149.119 214.698L100.934 253.302" fill="#8FE2EA"/>
<path d="M100.934 240.168L148.527 202.793C148.892 202.505 149.41 202.527 149.755 202.841C151.297 204.242 154.717 208.452 149.119 214.698L100.934 253.302" stroke="black" stroke-miterlimit="10" stroke-linecap="round" stroke-linejoin="round"/>
<path d="M100.719 239.997L149.137 202.594H80.4361L22.5098 240.171L100.719 239.997C100.719 239.997 105.588 245.739 100.931 253.306L100.719 239.997Z" fill="#8FE2EA"/>
<path d="M100.719 239.997L149.137 202.594H80.4361L22.5098 240.171L100.719 239.997ZM100.719 239.997C100.719 239.997 105.588 245.739 100.931 253.306" stroke="black" stroke-miterlimit="10" stroke-linecap="round" stroke-linejoin="round"/>
<path d="M82.5329 230.88L130.283 221.602L129.948 213.343L81.0059 222.46" fill="white"/>
<path d="M82.5329 230.88L130.283 221.602L129.948 213.343L81.0059 222.46" stroke="black" stroke-miterlimit="10" stroke-linecap="round" stroke-linejoin="round"/>
<path d="M82.5376 230.882L50.9036 215.481C46.5885 212.127 48.2913 209.031 49.1177 207.953C49.3026 207.711 49.6311 207.637 49.9 207.78L81.0105 222.462" fill="white"/>
<path d="M82.5376 230.882L50.9036 215.481C46.5885 212.127 48.2913 209.031 49.1177 207.953C49.3026 207.711 49.6311 207.637 49.9 207.78L81.0105 222.462" stroke="black" stroke-miterlimit="10" stroke-linecap="round" stroke-linejoin="round"/>
<path d="M81.1241 222.321L49.4812 207.717L85.2245 198.545C86.9727 198.096 88.8145 198.181 90.5146 198.787L129.95 214.456L81.1241 222.321Z" fill="#F77F15" stroke="black" stroke-miterlimit="10" stroke-linecap="round" stroke-linejoin="round"/>
<path d="M81.0097 222.459C81.0097 222.459 79.1022 226.573 82.1839 230.689C82.1839 230.689 82.4937 230.888 83.631 230.673C84.769 230.458 130.286 221.601 130.286 221.601" fill="#F2F2F2"/>
<path d="M81.0097 222.459C81.0097 222.459 79.1022 226.573 82.1839 230.689C82.1839 230.689 82.4937 230.888 83.631 230.673C84.769 230.458 130.286 221.601 130.286 221.601" stroke="black" stroke-miterlimit="10" stroke-linecap="round" stroke-linejoin="round"/>
<path d="M49.481 207.721C49.481 207.721 45.37 211.417 51.3747 215.926L81.6954 230.428C81.6954 230.428 82.037 230.414 81.613 229.684C81.1889 228.953 79.6081 226.894 80.939 222.709C80.939 222.709 81.0209 222.272 80.3938 221.947C79.7673 221.622 49.481 207.721 49.481 207.721Z" fill="#F77F15" stroke="black" stroke-miterlimit="10" stroke-linecap="round" stroke-linejoin="round"/>
<path d="M80.8606 223.739L129.948 214.46L129.613 206.201L79.3335 215.318" fill="white"/>
<path d="M80.8606 223.739L129.948 214.46L129.613 206.201L79.3335 215.318" stroke="black" stroke-miterlimit="10" stroke-linecap="round" stroke-linejoin="round"/>
<path d="M80.8651 223.736L49.2308 208.334C44.9159 204.98 46.619 201.883 47.4453 200.805C47.6299 200.564 47.9585 200.49 48.2276 200.632L79.3381 215.315" fill="white"/>
<path d="M80.8651 223.736L49.2308 208.334C44.9159 204.98 46.619 201.883 47.4453 200.805C47.6299 200.564 47.9585 200.49 48.2276 200.632L79.3381 215.315" stroke="black" stroke-miterlimit="10" stroke-linecap="round" stroke-linejoin="round"/>
<path d="M79.4518 215.18L47.8088 200.575L83.5521 191.403C85.3003 190.955 87.1422 191.04 88.8423 191.646L129.615 206.2L79.4518 215.18Z" fill="#F77F15" stroke="black" stroke-miterlimit="10" stroke-linecap="round" stroke-linejoin="round"/>
<path d="M79.3373 215.318C79.3373 215.318 77.4299 219.432 80.5115 223.548C80.5115 223.548 80.8213 223.747 81.9587 223.531C83.0966 223.317 129.952 214.459 129.952 214.459" fill="#F2F2F2"/>
<path d="M79.3373 215.318C79.3373 215.318 77.4299 219.432 80.5115 223.548C80.5115 223.548 80.8213 223.747 81.9587 223.531C83.0966 223.317 129.952 214.459 129.952 214.459" stroke="black" stroke-miterlimit="10" stroke-linecap="round" stroke-linejoin="round"/>
<path d="M47.8086 200.574C47.8086 200.574 43.6976 204.27 49.7023 208.779L80.023 223.281C80.023 223.281 80.3647 223.267 79.9406 222.537C79.5165 221.807 77.9357 219.747 79.2667 215.562C79.2667 215.562 79.3485 215.126 78.7214 214.8C78.095 214.475 47.8086 200.574 47.8086 200.574Z" fill="#F77F15" stroke="black" stroke-miterlimit="10" stroke-linecap="round" stroke-linejoin="round"/>
<path d="M100.72 240.539C100.72 240.539 104.878 246.276 100.72 252.906L99.1193 252.906L99.1192 240.538L100.72 240.539Z" fill="white"/>
</g>
<defs>
<clipPath id="clip0">
<rect width="400" height="400" fill="white"/>
</clipPath>
</defs>
</svg>
